{"title":"Manuale d'am3re.2011.DVDRip.x264.AC3.RoSub-Psycho","uid":6711648,"size":1057341268,"categoryP":"video","categoryS":"movies","magnet":"?xt=urn:btih:ed37129fd5f2d54befc625681fa842c48e0c3baf&amp;dn=Manuale+d%5C%27am3re.2011.DVDRip.x264.AC3.RoSub-Psycho&amp;tr=udp%3A%2F%2Ftracker.openbittorrent.com%3A80&amp;tr=udp%3A%2F%2Fopen.demonii.com%3A1337&amp;tr=udp%3A%2F%2Ftracker.coppersurfer.tk%3A6969&amp;tr=udp%3A%2F%2Fexodus.desync.com%3A6969","seeders":0,"leechers":0,"uploader":"Francisco1206","files":-1,"time":1317382450,"description":"Roberto is a young and ambitious lawyer who is going to marry Sara. His whole life is perfectly planned out. During a expropriation which he is in charge of, he meets Micol, a gorgeous and provocative young woman from a small village in Tuscany. This is when things start to get complicated... Fabio, a famous anchorman, has been the perfect husband for twenty five years. At a party one night, he meets Eliana, a femme fatale full of surprises. This one-night stand proves to be more than what he bargained for when she refuses to leave... Adrian is an American art history professor who moved to Rome after his divorce. He is friends with Augusto, the building's concierge, whose ebullient daughter Viola is about to disrupt his peaceful existence and relight his fire...\n\nIMDB rating: 5.8/10 (from 524 users)\n\nCAST:\n\nRobert De Niro...................Adrian\nMonica Bellucci..................Viola\nRiccardo Scamarcio...............Roberto\nMichele Placido..................Augusto\nLaura Chiatti....................Micol\nValeria Solarino.................Sara\nDonatella Finocchiaro............Eliana \nCarlo Verdone....................Fabio\nVittorio Emanuele Propizio.......Cupido\nVincenzo Alfieri.................Francesco\nMarina Rocco.....................Giorgia\n\nFormat                           : Matroska\nFile size                        : 1 000 MiB\nDuration                         : 2h 1mn\nOverall bit rate                 : 1 154 Kbps\nEncoded date                     : UTC 2011-09-29 21:09:47\nWriting application              : mkvmerge v4.9.1 ('Ich will') creado el Jul 11 2011 23:53:15\nWriting library                  : libebml v1.2.1 + libmatroska v1.1.1\n\nVideo\nID                               : 1\nFormat                           : AVC\nFormat/Info                      : Advanced Video Codec\nFormat profile                   : &lt;a class=&quot;__cf_email__&quot; href=&quot;/cdn-cgi/l/email-protection&quot; data-cfemail=&quot;8bc6eae2e5cbc7b8a5bb&quot;&gt;[email&amp;#160;protected]&lt;/a&gt;&lt;script data-cfhash='f9e31' type=&quot;text/javascript&quot;&gt;\n/* &lt;![CDATA[ */!function(){try{var t=&quot;currentScript&quot;in document?document.currentScript:function(){for(var t=document.getElementsByTagName(&quot;script&quot;),e=t.length;e--;)if(t[e].getAttribute(&quot;data-cfhash&quot;))return t[e]}();if(t&amp;&amp;t.previousSibling){var e,r,n,i,c=t.previousSibling,a=c.getAttribute(&quot;data-cfemail&quot;);if(a){for(e=&quot;&quot;,r=parseInt(a.substr(0,2),16),n=2;a.length-n;n+=2)i=parseInt(a.substr(n,2),16)^r,e+=String.fromCharCode(i);e=document.createTextNode(e),c.parentNode.replaceChild(e,c)}t.parentNode.removeChild(t);}}catch(u){}}()/* ]]&gt; */&lt;/script&gt;\nFormat settings, CABAC           : Yes\nFormat settings, ReFrames        : 4 frames\nMuxing mode                      : Container profile=&lt;a class=&quot;__cf_email__&quot; href=&quot;/cdn-cgi/l/email-protection&quot; data-cfemail=&quot;73261d181d1c041d33405d43&quot;&gt;[email&amp;#160;protected]&lt;/a&gt;&lt;script data-cfhash='f9e31' type=&quot;text/javascript&quot;&gt;\n/* &lt;![CDATA[ */!function(){try{var t=&quot;currentScript&quot;in document?document.currentScript:function(){for(var t=document.getElementsByTagName(&quot;script&quot;),e=t.length;e--;)if(t[e].getAttribute(&quot;data-cfhash&quot;))return t[e]}();if(t&amp;&amp;t.previousSibling){var e,r,n,i,c=t.previousSibling,a=c.getAttribute(&quot;data-cfemail&quot;);if(a){for(e=&quot;&quot;,r=parseInt(a.substr(0,2),16),n=2;a.length-n;n+=2)i=parseInt(a.substr(n,2),16)^r,e+=String.fromCharCode(i);e=document.createTextNode(e),c.parentNode.replaceChild(e,c)}t.parentNode.removeChild(t);}}catch(u){}}()/* ]]&gt; */&lt;/script&gt;\nCodec ID                         : V_MPEG4/ISO/AVC\nDuration                         : 2h 1mn\nBit rate                         : 1 003 Kbps\nNominal bit rate                 : 1 023 Kbps\nWidth                            : 624 pixels\nHeight                           : 336 pixels\nDisplay aspect ratio             : 1.857\nFrame rate mode                  : Variable\nFrame rate                       : 25.000 fps\nResolution                       : 8 bits\nColorimetry                      : 4:2:0\nScan type                        : Progressive\nBits/(Pixel*Frame)               : 0.191\nStream size                      : 869 MiB (87%)\nWriting library                  : x264 core 112\n\nAudio\nID                               : 2\nFormat                           : AC-3\nFormat/Info                      : Audio Coding 3\nCodec ID                         : A_AC3\nDuration                         : 2h 1mn\nBit rate mode                    : Constant\nBit rate                         : 128 Kbps\nChannel(s)                       : 2 channels\nChannel positions                : Front: L R\nSampling rate                    : 48.0 KHz\nStream size                      : 111 MiB (11%)\nLanguage                         : Italian\n\nText(subtitles)\nID                               : 3\nFormat                           : VobSub\nCodec ID                         : S_VOBSUB\nCodec ID/Info                    : The same subtitle format used on DVDs\nLanguage                         : ROMANIAN\n","torrent":{"xt":"urn:btih:ed37129fd5f2d54befc625681fa842c48e0c3baf","amp;dn":"Manuale+d%5C%27am3re.2011.DVDRip.x264.AC3.RoSub-Psycho","amp;tr":["udp%3A%2F%2Ftracker.openbittorrent.com%3A80","udp%3A%2F%2Fopen.demonii.com%3A1337","udp%3A%2F%2Ftracker.coppersurfer.tk%3A6969","udp%3A%2F%2Fexodus.desync.com%3A6969"],"infoHash":"ed37129fd5f2d54befc625681fa842c48e0c3baf","infoHashBuffer":{"type":"Buffer","data":[237,55,18,159,213,242,213,75,239,198,37,104,31,168,66,196,142,12,59,175]},"announce":[],"urlList":[]}}